# xmcd
#
# Track frame offsets: 
#        150
#        29159
#        46765
#        72073
#        101124
#        114727
#
# Disc length: 2064 seconds
#
# Revision: 3
# Processed by: cddbd v1.5.2PL0 Copyright (c) Steve Scherf et al.
# Submitted via: ExactAudioCopy v1.1
#
DISCID=50080e06
DTITLE=Cuby and Blizzards - Old Times - Good Times
DYEAR=1977
DGENRE=Blues
TTITLE0=Something Inside Me
TTITLE1=Stepping In My Shoes
TTITLE2=Country Boy
TTITLE3=It's My Own Fault
TTITLE4=Downhearted Woman
TTITLE5=Here I'm Standing
EXTD=
EXTT0=
EXTT1=
EXTT2=
EXTT3=
EXTT4=
EXTT5=
PLAYORDER=
